<?xml version="1.0" encoding="UTF-8"?>
<svg xmlns="http://www.w3.org/2000/svg" viewBox="283 763 373 373">
  <g transform="translate(0,2048) scale(0.1,-0.1)" fill="#FFFFFF">
    <path d="M5010 12501 c-58 -9 -187 -41 -267 -66 -26 -9 -99 -41 -160 -71 -354 -174 -613 -476 -736 -859 -43 -133 -64 -251 -73 -407 l-7 -118 -462 0 -463 0 -6 -22 c-3 -13 -3 -66 0 -118 16 -284 106 -556 260 -788 113 -168 324 -356 516 -460 272 -147 637 -190 968 -115 236 53 456 178 640 363 272 273 413 611 423 1020 l3 115 455 5 454 5 3 45 c4 47 -12 207 -29 300 -107 592 -523 1031 -1094 1157 -79 17 -341 26 -425 14z m320 -960 c73 -27 162 -99 205 -164 58 -87 104 -239 105 -345 l0 -52 -457 2 -458 3 -3 48 c-5 73 24 204 60 277 61 119 191 225 310 250 64 13 176 5 238 -19z m-612 -641 c13 -295 -191 -520 -470 -520 -217 0 -393 144 -453 371 -15 55 -20 210 -8 222 3 4 214 6 467 5 l461 -3 3 -75z"/>
  </g>
</svg>
